<svg id="Режим_изоляции" data-name="Режим изоляции" xmlns="http://www.w3.org/2000/svg" viewBox="0 0 409.6 409.6"><defs><style>.cls-1{fill:#ed3338;}</style></defs><title>F</title><path class="cls-1" d="M231.75,409.6H168.82A11.62,11.62,0,0,1,157.2,398V289.77h-8.87a43.08,43.08,0,1,1,0-86.17h8.87V162.36a81.31,81.31,0,0,1,81.21-81.21h26a39.91,39.91,0,0,1,0,79.83H253.87a10.51,10.51,0,0,0-10.5,10.5V203.6h17.22a43.22,43.22,0,0,1,43.08,42.66,43.08,43.08,0,0,1-43.08,43.5H243.37V398a11.62,11.62,0,0,1-11.62,11.62Zm-51.31-23.24h39.7V278.15a11.62,11.62,0,0,1,11.62-11.62H260.6a19.85,19.85,0,0,0,0-39.7H231.75a11.62,11.62,0,0,1-11.62-11.62V171.47a33.77,33.77,0,0,1,33.73-33.73h10.57a16.68,16.68,0,0,0,0-33.36h-26a58,58,0,0,0-58,58v52.85a11.62,11.62,0,0,1-11.62,11.62H148.33a19.85,19.85,0,0,0,0,39.69h20.49a11.62,11.62,0,0,1,11.62,11.62Zm0,0"/><path class="cls-1" d="M346,409.6H315.76a11.62,11.62,0,0,1,0-23.24H346A40.44,40.44,0,0,0,386.36,346V63.63A40.44,40.44,0,0,0,346,23.24H171.49a11.62,11.62,0,0,1,0-23.24H346A63.7,63.7,0,0,1,409.6,63.63V346A63.7,63.7,0,0,1,346,409.6Zm0,0"/><path class="cls-1" d="M231.75,409.6H63.63A63.7,63.7,0,0,1,0,346V63.63A63.7,63.7,0,0,1,63.63,0H89.78a11.62,11.62,0,0,1,0,23.24H63.63A40.44,40.44,0,0,0,23.24,63.63V346a40.44,40.44,0,0,0,40.39,40.39H231.75a11.62,11.62,0,0,1,0,23.24Zm0,0"/></svg>