<svg id="Режим_изоляции" data-name="Режим изоляции" xmlns="http://www.w3.org/2000/svg" viewBox="0 0 406.14 409.6"><defs><style>.cls-1{fill:#ed3338;}</style></defs><title>G</title><path class="cls-1" d="M343.05,409.6h-30a11.52,11.52,0,1,1,0-23h30a40.1,40.1,0,0,0,40.05-40.05v-280A40.1,40.1,0,0,0,343.05,26.5H170a11.52,11.52,0,1,1,0-23h173a63.16,63.16,0,0,1,63.09,63.09v280a63.17,63.17,0,0,1-63.09,63.09Zm0,0"/><path class="cls-1" d="M229.8,406.15H63.09A63.17,63.17,0,0,1,0,343.05v-280A63.16,63.16,0,0,1,63.09,0H89a11.52,11.52,0,0,1,0,23H63.09A40.1,40.1,0,0,0,23,63.09v280A40.1,40.1,0,0,0,63.09,383.1H229.8a11.52,11.52,0,0,1,0,23Zm0,0"/><path class="cls-1" d="M163.93,310.51a105.71,105.71,0,1,1,0-211.43c23.91,0,45.88,7.28,63.53,21.06a21.37,21.37,0,0,1,1.79,32.06L214.4,167.06a21.83,21.83,0,0,1-14.2,6.49,21.14,21.14,0,0,1-13.86-4.16c-6-4.44-13.72-6.78-22.41-6.78-22.19,0-40.94,19.32-40.94,42.19s18.37,41.48,40.94,41.48c10.53,0,18-2.94,23.2-6.63a21.41,21.41,0,0,1-20.42-21.36V204.16a21.41,21.41,0,0,1,21.38-21.38h45.47A31.44,31.44,0,0,1,265,214.19c0,39.69-21.56,63.35-34.4,73.93-19.33,15.91-38.64,22.4-66.63,22.4Zm0-188.38a82.67,82.67,0,1,0,0,165.34c25.94,0,39.13-6.56,52-17.15,9.71-8,26-25.91,26-56.13a8.37,8.37,0,0,0-8.36-8.37H189.75v10.8h19.7a11.52,11.52,0,0,1,11.09,14.63c-3.68,13.17-20.26,38.07-56.61,38.07-35.28,0-64-28.94-64-64.52,0-35.36,29.3-65.23,64-65.23,13.12,0,25.16,3.61,34.93,10.45l12.88-12.87c-13.31-9.83-29.79-15-47.8-15Zm0,0"/><path class="cls-1" d="M311.93,240.8a11.52,11.52,0,0,1-11.52-11.52v-49a11.52,11.52,0,1,1,23,0v49a11.52,11.52,0,0,1-11.52,11.52Zm0,0"/><path class="cls-1" d="M336.41,216.32h-49a11.52,11.52,0,0,1,0-23h49a11.52,11.52,0,0,1,0,23Zm0,0"/></svg>