<svg id="Режим_изоляции" data-name="Режим изоляции" xmlns="http://www.w3.org/2000/svg" viewBox="0 0 409.6 409.6"><defs><style>.cls-1{fill:#ed3338;}</style></defs><title>I</title><path class="cls-1" d="M346,409.6H315.76a11.62,11.62,0,0,1,0-23.24H346A40.44,40.44,0,0,0,386.36,346V63.63A40.44,40.44,0,0,0,346,23.24H171.49a11.62,11.62,0,0,1,0-23.24H346A63.7,63.7,0,0,1,409.6,63.63V346A63.7,63.7,0,0,1,346,409.6Zm0,0"/><path class="cls-1" d="M231.75,409.6H63.63A63.7,63.7,0,0,1,0,346V63.63A63.7,63.7,0,0,1,63.63,0H89.78a11.62,11.62,0,0,1,0,23.24H63.63A40.44,40.44,0,0,0,23.24,63.63V346a40.44,40.44,0,0,0,40.39,40.39H231.75a11.62,11.62,0,1,1,0,23.24Zm0,0"/><path class="cls-1" d="M287.68,339.57H121.92A52,52,0,0,1,70,287.68V121.92A52,52,0,0,1,121.92,70H287.68a52,52,0,0,1,51.89,51.9V287.68a52,52,0,0,1-51.89,51.89ZM121.92,93.26a28.69,28.69,0,0,0-28.66,28.66V287.68a28.7,28.7,0,0,0,28.66,28.66H287.68a28.7,28.7,0,0,0,28.66-28.66V121.92a28.69,28.69,0,0,0-28.66-28.66Zm82.88,183a71.44,71.44,0,1,1,71.44-71.44,71.52,71.52,0,0,1-71.44,71.44Zm0-119.65A48.21,48.21,0,1,0,253,204.8a48.26,48.26,0,0,0-48.21-48.21Zm0,0"/><path class="cls-1" d="M293.48,131.6a16.36,16.36,0,1,1-16.36-16.36,16.36,16.36,0,0,1,16.36,16.36Zm0,0"/></svg>