<svg id="Режим_изоляции" data-name="Режим изоляции" xmlns="http://www.w3.org/2000/svg" viewBox="0 0 409.6 409.6"><defs><style>.cls-1{fill:#ed3338;}</style></defs><title>t</title><path class="cls-1" d="M346,409.6H315.76a11.62,11.62,0,0,1,0-23.24H346A40.44,40.44,0,0,0,386.36,346V63.63A40.44,40.44,0,0,0,346,23.24H171.49a11.62,11.62,0,0,1,0-23.24H346A63.7,63.7,0,0,1,409.6,63.63V346A63.7,63.7,0,0,1,346,409.6Zm0,0"/><path class="cls-1" d="M231.75,409.6H63.63A63.7,63.7,0,0,1,0,346V63.63A63.7,63.7,0,0,1,63.63,0H89.78a11.62,11.62,0,0,1,0,23.24H63.63A40.44,40.44,0,0,0,23.24,63.63V346a40.44,40.44,0,0,0,40.39,40.39H231.75a11.62,11.62,0,0,1,0,23.24Zm0,0"/><path class="cls-1" d="M181.77,326.63a257.38,257.38,0,0,1-59.51-7.47C114.34,317.22,108,315.29,104,314c-8-2.61-13.8-4.48-14.4-12.41a11.62,11.62,0,0,1,9.59-12.33c23.49-4.09,38.13-8.85,47.21-13a61,61,0,0,1-29.51-20,18,18,0,0,1-3-17c-17.23-8.87-25-23.68-28.42-33.59A18,18,0,0,1,87.8,189.4a17.74,17.74,0,0,1,2.62-2.93c-16.57-19.85-15.12-40.53-13.21-50A18.08,18.08,0,0,1,94.86,122a17.67,17.67,0,0,1,10.87,3.72c30.5,23.5,64.56,27.95,83.74,28.31-2.32-17.62,3.51-37,15.41-51A56,56,0,0,1,248.09,83a67.92,67.92,0,0,1,15.33,1.82c15.88,3.69,28.56,14,36.91,29.88l25.76,9.81a11.62,11.62,0,0,1,3.2,19.87l-18.2,14.82c2.95,43.47,1.11,96.07-31.74,131.59-22,23.79-54.82,35.86-97.58,35.86Zm-33.62-26a217.21,217.21,0,0,0,33.62,2.74c36,0,63.1-9.56,80.52-28.4,28.28-30.59,28.32-80.25,25.19-120.1a11.61,11.61,0,0,1,4.25-9.92L299,139l-11.25-4.29a11.6,11.6,0,0,1-6.47-6.12c-5.24-11.72-13-18.85-23.13-21.2a44.77,44.77,0,0,0-10.07-1.21,32.72,32.72,0,0,0-25.52,11.88c-7.85,9.21-11.75,22.49-9.92,33.82a39.63,39.63,0,0,0,2.45,8.73,11.62,11.62,0,0,1-9.37,15.94,119.6,119.6,0,0,1-13.55.67c-20,0-57.57-3.74-92.89-27.58.44,10.5,5.81,23.15,23.85,34.5a11.62,11.62,0,0,1-4.8,21.37,53.51,53.51,0,0,1-6.08.31H111c6.32,10.57,17.07,16.46,32,17.51A11.62,11.62,0,0,1,148,245a38.38,38.38,0,0,1-6.67,2.86c5.74,4.46,13.95,8.17,25.35,8.17,1.53,0,3.11-.07,4.7-.2a11.62,11.62,0,0,1,12.53,10.58c.23,2.68,0,12.21-12.67,22.06-5.77,4.49-13.48,8.55-23.07,12.17Zm0,0"/></svg>