<svg id="Режим_изоляции" data-name="Режим изоляции" xmlns="http://www.w3.org/2000/svg" viewBox="0 0 409.6 409.6"><defs><style>.cls-1{fill:#ed3338;}</style></defs><title>Vk</title><path class="cls-1" d="M346,409.6H315.76a11.62,11.62,0,0,1,0-23.24H346A40.44,40.44,0,0,0,386.36,346V63.63A40.44,40.44,0,0,0,346,23.24H171.49a11.62,11.62,0,0,1,0-23.24H346A63.7,63.7,0,0,1,409.6,63.63V346A63.7,63.7,0,0,1,346,409.6Zm0,0"/><path class="cls-1" d="M231.75,409.6H63.63A63.7,63.7,0,0,1,0,346V63.63A63.7,63.7,0,0,1,63.63,0H89.78a11.62,11.62,0,0,1,0,23.24H63.63A40.44,40.44,0,0,0,23.24,63.63V346a40.44,40.44,0,0,0,40.39,40.39H231.75a11.62,11.62,0,1,1,0,23.24Zm0,0"/><path class="cls-1" d="M327.67,296.87c-9.52,0-21.13-.26-26.09-.38l-2.6-.05a40.16,40.16,0,0,1-28.19-11.29c-4.75-4.57-9.19-9.4-13.49-14.07l-.15-.16c-2.29-2.48-4.65-5-7-7.5a49.71,49.71,0,0,0-5.81-5.29,5.78,5.78,0,0,0-2.18-1.15,4.59,4.59,0,0,0-.81,1.43c-1.57,4-3.41,16.14-3.79,19.75-.77,10.24-7.91,17-18.65,17.57-3.41.18-6.75.28-9.94.28-21.2,0-39.24-4.14-55.14-12.66S124,262.64,110.91,245.9C95.13,225.75,81,202.52,65,170.57c-.68-1.35-12.9-27.36-14.26-30.76a12,12,0,0,1-.5-1.56c-1.7-7,.44-13.41,5.59-16.75a11.58,11.58,0,0,1,5.23-1.82c.71-.07,2.88-.27,12.43-.27,13.39,0,32.66.4,33.8.44h.22c9.87.53,16.79,5.51,20.56,14.8,8.7,21.5,19,39.56,31.54,55.24a22.38,22.38,0,0,0,3.52,3.48,69.44,69.44,0,0,0,2-13.1c.22-11.49,0-19-.65-30.55-.36-6.52-2.55-8.18-7-9.27a11.62,11.62,0,0,1-5.79-19.17c6.05-6.54,13.93-7.82,21.56-8.23,3.79-.21,7.91-.3,12.59-.3,4.29,0,8.59.08,12.74.16,2.86.05,5.71.11,8.57.13a73.31,73.31,0,0,1,15,1.54c8.23,1.79,13.82,7.88,15.3,16.71a54,54,0,0,1,.78,10.25c-.12,5.2-.29,10.46-.46,15.56v.26c-.25,7.41-.5,15-.58,22.38a61.17,61.17,0,0,0,1.08,12.82A161.34,161.34,0,0,0,253,173.9c7.6-10.91,14.22-23.76,20.84-40.45,4.09-10.3,8.93-13.62,19.92-13.64q23-.06,46,0a33.89,33.89,0,0,1,10.21,1.41c7.49,2.39,11.31,9.3,9.52,17.21-2.64,11.73-9,21.32-14.67,29.39-6.21,8.76-12.7,17.5-19,26-3.34,4.49-6.62,8.91-9.87,13.34a42.92,42.92,0,0,0-2.84,4.52c-2.26,4.09-2,4.39.81,7.27,3.36,3.46,6.89,6.91,10.32,10.25,5.06,4.94,10.25,10,15.13,15.34A157.17,157.17,0,0,1,356,266.17c4.16,6.57,5,13.69,2.31,19.52-1.55,3.36-5.69,9.22-15.95,10.68-1.54.21-4.72.5-14.7.5Zm-85.61-63.15a27.08,27.08,0,0,1,16.38,5.92,72.68,72.68,0,0,1,8.53,7.72c2.49,2.61,4.93,5.25,7.28,7.82l.15.17c4.06,4.42,8.26,9,12.5,13.06a16.91,16.91,0,0,0,12.2,4.8l2.93.06c5,.11,16.38.37,25.63.37,2.14,0,3.91,0,5.36,0a136.63,136.63,0,0,0-10.84-13.44c-4.42-4.84-9.37-9.67-14.15-14.34-3.58-3.49-7.23-7.05-10.82-10.75-10.12-10.45-11.57-21.81-4.44-34.72a66.29,66.29,0,0,1,4.41-7q4.93-6.71,9.9-13.38c6.25-8.42,12.66-17.05,18.72-25.6A103.81,103.81,0,0,0,333,143q-19,0-38,0c-7.16,17.91-14.47,32-23,44.15a178.5,178.5,0,0,1-17.91,22.38c-6.22,6.44-12.68,7.79-17,7.79-10.47,0-18.89-7.52-21.46-19.17a83.2,83.2,0,0,1-1.75-18.71c.09-7.65.34-15.34.59-22.78v-.36c.17-5,.34-10.25.46-15.34a28.89,28.89,0,0,0-.22-4.16,55.88,55.88,0,0,0-7.85-.57c-2.93,0-5.85-.08-8.78-.14-4.31-.08-8.8-.17-13.09-.16a38.47,38.47,0,0,1,2.66,12.49c.66,12.13.92,20,.68,32.24a86.52,86.52,0,0,1-4,22.54c-3.2,9-10.82,14.63-19.87,14.63a23,23,0,0,1-13-4.21,46.82,46.82,0,0,1-10.1-9.3c-13.93-17.43-25.35-37.39-34.91-61,0-.12-.09-.22-.13-.32h0c-1.77,0-16.78-.35-28.82-.41,3.54,7.62,7.65,16.37,8.23,17.56,15.21,30.47,28.6,52.48,43.38,71.36,11.09,14.16,22.74,24.39,35.63,31.29,12.44,6.67,26.89,9.91,44.16,9.91,1.9,0,3.87,0,5.88-.12.76-5.71,2.45-16.64,4.9-22.82,4-10.09,12.34-16.11,22.29-16.11Zm0,0"/></svg>